<svg width="27" height="32" viewBox="0 0 27 32" fill="none" xmlns="http://www.w3.org/2000/svg">
<path d="M12.5581 0L7.17384 1.45383L0.0941859 28.0968C0.0470929 28.3338 0 28.5867 0 28.8395C0 30.5936 1.39709 32 3.13953 32H21.9767C23.7192 32 25.1163 30.5936 25.1163 28.8395C25.1163 28.5867 25.0692 28.3338 25.0221 28.0968L22.8872 20.0217L20.407 22.5185L20.7209 24.0988H14.7715L19.2297 19.6109L17.0163 17.3827L10.3448 24.0988H4.39535L9.87384 3.55556H15.2424L17.5343 12.1363L20.093 9.54469L17.9424 1.45383L12.5581 0ZM11.3808 5.1358V20.5432L13.7355 18.1728V5.1358H11.3808ZM24.7866 9.56049L20.3442 14.0326L19.2297 12.9106L17.0163 15.1546L21.443 19.6109L23.6721 17.3827L22.5576 16.2607L27 11.7886L24.7866 9.56049Z" fill="#F5F5F5" fill-opacity="0.99"/>
</svg>
