<svg width="585" height="698" viewBox="0 0 585 698" fill="none" xmlns="http://www.w3.org/2000/svg">
<g filter="url(#filter0_d_36_879)">
<path d="M319.57 117.586C327.864 113.248 338.098 115.991 343.112 123.894L446.844 287.411C450.396 293.011 450.582 300.11 447.327 305.888L336.815 502.067C332.782 509.227 324.411 512.747 316.473 510.62L149.277 465.819C141.339 463.692 135.85 456.459 135.937 448.242L138.32 223.09C138.39 216.459 142.101 210.403 147.977 207.33L319.57 117.586Z" fill="url(#paint0_linear_36_879)" shape-rendering="crispEdges"/>
</g>
<g filter="url(#filter1_d_36_879)">
<path d="M360.627 344.154C308.078 406.648 206.401 378.363 193.674 297.71C182.87 229.247 246.488 172.544 313.262 191.12C380.037 209.695 405.233 291.106 360.627 344.154Z" fill="url(#paint1_linear_36_879)" shape-rendering="crispEdges"/>
</g>
<defs>
<filter id="filter0_d_36_879" x="0.935547" y="31.534" width="583.708" height="665.701" filterUnits="userSpaceOnUse" color-interpolation-filters="sRGB">
<feFlood flood-opacity="0" result="BackgroundImageFix"/>
<feColorMatrix in="SourceAlpha" type="matrix" values="0 0 0 0 0 0 0 0 0 0 0 0 0 0 0 0 0 0 127 0" result="hardAlpha"/>
<feOffset dy="51"/>
<feGaussianBlur stdDeviation="67.5"/>
<feComposite in2="hardAlpha" operator="out"/>
<feColorMatrix type="matrix" values="0 0 0 0 0.501961 0 0 0 0 0.854902 0 0 0 0 0.870588 0 0 0 1 0"/>
<feBlend mode="normal" in2="BackgroundImageFix" result="effect1_dropShadow_36_879"/>
<feBlend mode="normal" in="SourceGraphic" in2="effect1_dropShadow_36_879" result="shape"/>
</filter>
<filter id="filter1_d_36_879" x="57.4688" y="0.55204" width="460.56" height="460.636" filterUnits="userSpaceOnUse" color-interpolation-filters="sRGB">
<feFlood flood-opacity="0" result="BackgroundImageFix"/>
<feColorMatrix in="SourceAlpha" type="matrix" values="0 0 0 0 0 0 0 0 0 0 0 0 0 0 0 0 0 0 127 0" result="hardAlpha"/>
<feOffset dy="-52"/>
<feGaussianBlur stdDeviation="67.5"/>
<feComposite in2="hardAlpha" operator="out"/>
<feColorMatrix type="matrix" values="0 0 0 0 0.466667 0 0 0 0 0.584314 0 0 0 0 0.847059 0 0 0 1 0"/>
<feBlend mode="normal" in2="BackgroundImageFix" result="effect1_dropShadow_36_879"/>
<feBlend mode="normal" in="SourceGraphic" in2="effect1_dropShadow_36_879" result="shape"/>
</filter>
<linearGradient id="paint0_linear_36_879" x1="334.242" y1="109.913" x2="222.174" y2="528.158" gradientUnits="userSpaceOnUse">
<stop stop-color="#4FCAD2"/>
<stop offset="1" stop-color="#4FCAD2" stop-opacity="0.24"/>
</linearGradient>
<linearGradient id="paint1_linear_36_879" x1="226.226" y1="503.989" x2="342.275" y2="86.8298" gradientUnits="userSpaceOnUse">
<stop stop-color="#714FD2"/>
<stop offset="1" stop-color="#7357D4" stop-opacity="0.17"/>
</linearGradient>
</defs>
</svg>
